<?xml version="1.0" encoding="utf-8"?>
<!-- Generator: Adobe Illustrator 19.0.0, SVG Export Plug-In . SVG Version: 6.00 Build 0)  -->
<svg version="1.1" id="Layer_1" xmlns="http://www.w3.org/2000/svg" xmlns:xlink="http://www.w3.org/1999/xlink" x="0px" y="0px"
	 viewBox="0 0 100 100" style="enable-background:new 0 0 100 100;" xml:space="preserve">
<style type="text/css">
	.st0{clip-path:url(#XMLID_18_);}
	.st1{clip-path:url(#XMLID_19_);fill:#FFFFFF;}
</style>
<g id="XMLID_2_">
	<defs>
		<path id="XMLID_3_" d="M83.8,70.8h-8.6c-3,0-5.1-0.3-7.4-1.7c-2.1-1.3-3.8-3-5-5.3c-0.6-1.1-0.7-3.4-0.7-3.4V49.2h4.9L67,58.9
			c0,3.8,3.1,6.9,7,6.9h9.9L83.8,70.8L83.8,70.8z M83.8,76.3H74c-9.6,0-17.5-7.8-17.5-17.4v-9.7h5v11.3c0,0.1,0.1,2.4,0.8,3.7
			c1.3,2.4,3,4.2,5.2,5.5c2.4,1.5,4.6,1.8,7.8,1.8h8.6V76.3z M56,45.6c-1.6,0.3-3.4,0.4-5.2,0.5c-1.8,0-3.6-0.2-5.2-0.5
			c0-5.7,0.1-18.1,0.1-18.1c0-2,0.1-3.8,0.3-5.5c1.5,0.3,3.1,0.4,4.8,0.4c1.7,0,3.3-0.2,4.8-0.4c0.2,1.7,0.3,3.5,0.3,5.5
			C56,27.5,55.9,39.9,56,45.6z M51.1,48.9c-1.9,0-3.8-0.2-5.5-0.5v-2.3c1.7,0.3,3.6,0.5,5.5,0.5c1.7,0,3.3-0.1,4.9-0.4v2.3
			C54.4,48.8,52.8,48.9,51.1,48.9z M50.9,56.4c0,0-2-2.5-2.3-6.9c0.8,0.1,1.7,0.1,2.6,0.1c0.6,0,1.2,0,1.8,0
			C52.9,53.6,50.9,56.4,50.9,56.4z M44.9,45.5l-10.6,0L45,29.2L44.9,45.5z M27.5,76.3h-9.9v-4.8h8.6c3.1,0,5.3-0.3,7.8-1.8
			c2.2-1.4,3.9-3.2,5.2-5.5c0.7-1.3,0.8-3.6,0.8-3.7V49.2h5v9.7C44.9,68.5,37.1,76.3,27.5,76.3z M17.6,65.8h9.9c3.9,0,7-3.1,7-6.9
			l-0.1-9.7h4.9v11.3c0,0-0.1,2.2-0.7,3.4c-1.2,2.3-2.8,4-5,5.3c-2.3,1.4-4.4,1.7-7.4,1.7h-8.6V65.8z M50.9,9.2
			c0.3,0.3,3.6,4,4.8,12.2c-1.5,0.3-3.1,0.4-4.8,0.4c-1.7,0-3.3-0.2-4.8-0.4C47.3,13.2,50.6,9.5,50.9,9.2z M56.6,29.2l10.5,16.3
			l-10.5,0L56.6,29.2z M50.7,1.4C23.9,1.4,2.2,23.1,2.2,49.8S24,98.3,50.7,98.3s48.5-21.7,48.5-48.5S77.5,1.4,50.7,1.4z"/>
	</defs>
	<use xlink:href="#XMLID_3_"  style="overflow:visible;fill:#FFFFFF;"/>
	<clipPath id="XMLID_18_">
		<use xlink:href="#XMLID_3_"  style="overflow:visible;"/>
	</clipPath>
	<g id="XMLID_15_" class="st0">
		<defs>
			<rect id="XMLID_16_" x="-203.8" y="-1025.8" width="2181.5" height="2982.9"/>
		</defs>
		<use xlink:href="#XMLID_16_"  style="overflow:visible;fill:#FFFFFF;"/>
		<clipPath id="XMLID_19_">
			<use xlink:href="#XMLID_16_"  style="overflow:visible;"/>
		</clipPath>
		<rect id="XMLID_17_" x="-5.3" y="-6.2" class="st1" width="112.1" height="112.1"/>
	</g>
</g>
</svg>
